<svg width="468" height="200" viewBox="0 0 468 200" fill="none" xmlns="http://www.w3.org/2000/svg">
<rect width="468" height="200" fill="#0B0D10"/>
<rect width="156" height="156" transform="translate(24 22)" fill="#0B0D10"/>
<rect opacity="0.9" x="24" y="22" width="48" height="48" rx="12" fill="#F2F4F7"/>
<rect opacity="0.9" x="78" y="22" width="48" height="48" rx="12" fill="#F2F4F7"/>
<rect opacity="0.9" x="132" y="22" width="48" height="48" rx="12" fill="#F2F4F7"/>
<rect opacity="0.9" x="24" y="76" width="48" height="48" rx="12" fill="#F2F4F7"/>
<rect opacity="0.9" x="78" y="76" width="48" height="48" rx="12" fill="#E16A2E"/>
<rect opacity="0.9" x="132" y="76" width="48" height="48" rx="12" fill="#F2F4F7"/>
<rect opacity="0.9" x="24" y="130" width="48" height="48" rx="12" fill="#F2F4F7"/>
<rect opacity="0.9" x="78" y="130" width="48" height="48" rx="12" fill="#F2F4F7"/>
<rect opacity="0.9" x="132" y="130" width="48" height="48" rx="12" fill="#F2F4F7"/>
<path d="M229.449 106.273H235.176L238.568 110.67L240.989 113.534L246.801 121H240.665L236.71 115.989L235.023 113.602L229.449 106.273ZM247.636 100.545C247.636 104.307 246.932 107.528 245.523 110.21C244.125 112.881 242.216 114.926 239.795 116.347C237.386 117.767 234.653 118.477 231.597 118.477C228.54 118.477 225.801 117.767 223.381 116.347C220.972 114.915 219.063 112.864 217.653 110.193C216.256 107.511 215.557 104.295 215.557 100.545C215.557 96.7841 216.256 93.5682 217.653 90.8977C219.063 88.2159 220.972 86.1648 223.381 84.7443C225.801 83.3239 228.54 82.6136 231.597 82.6136C234.653 82.6136 237.386 83.3239 239.795 84.7443C242.216 86.1648 244.125 88.2159 245.523 90.8977C246.932 93.5682 247.636 96.7841 247.636 100.545ZM241.278 100.545C241.278 97.8977 240.864 95.6648 240.034 93.8466C239.216 92.017 238.08 90.6364 236.625 89.7045C235.17 88.7614 233.494 88.2898 231.597 88.2898C229.699 88.2898 228.023 88.7614 226.568 89.7045C225.114 90.6364 223.972 92.017 223.142 93.8466C222.324 95.6648 221.915 97.8977 221.915 100.545C221.915 103.193 222.324 105.432 223.142 107.261C223.972 109.08 225.114 110.46 226.568 111.403C228.023 112.335 229.699 112.801 231.597 112.801C233.494 112.801 235.17 112.335 236.625 111.403C238.08 110.46 239.216 109.08 240.034 107.261C240.864 105.432 241.278 103.193 241.278 100.545ZM266.668 106.273H272.395L275.787 110.67L278.207 113.534L284.02 121H277.884L273.929 115.989L272.241 113.602L266.668 106.273ZM284.855 100.545C284.855 104.307 284.151 107.528 282.741 110.21C281.344 112.881 279.435 114.926 277.014 116.347C274.605 117.767 271.872 118.477 268.815 118.477C265.759 118.477 263.02 117.767 260.599 116.347C258.19 114.915 256.281 112.864 254.872 110.193C253.474 107.511 252.776 104.295 252.776 100.545C252.776 96.7841 253.474 93.5682 254.872 90.8977C256.281 88.2159 258.19 86.1648 260.599 84.7443C263.02 83.3239 265.759 82.6136 268.815 82.6136C271.872 82.6136 274.605 83.3239 277.014 84.7443C279.435 86.1648 281.344 88.2159 282.741 90.8977C284.151 93.5682 284.855 96.7841 284.855 100.545ZM278.497 100.545C278.497 97.8977 278.082 95.6648 277.253 93.8466C276.435 92.017 275.298 90.6364 273.844 89.7045C272.389 88.7614 270.713 88.2898 268.815 88.2898C266.918 88.2898 265.241 88.7614 263.787 89.7045C262.332 90.6364 261.19 92.017 260.361 93.8466C259.543 95.6648 259.134 97.8977 259.134 100.545C259.134 103.193 259.543 105.432 260.361 107.261C261.19 109.08 262.332 110.46 263.787 111.403C265.241 112.335 266.918 112.801 268.815 112.801C270.713 112.801 272.389 112.335 273.844 111.403C275.298 110.46 276.435 109.08 277.253 107.261C278.082 105.432 278.497 103.193 278.497 100.545ZM293.489 118H286.739L299.028 83.0909H306.835L319.142 118H312.392L303.068 90.25H302.795L293.489 118ZM293.71 104.312H312.119V109.392H293.71V104.312ZM335.646 118V83.0909H341.97V112.699H357.345V118H335.646ZM370.095 118.528C368.436 118.528 366.942 118.233 365.612 117.642C364.294 117.04 363.249 116.153 362.476 114.983C361.714 113.812 361.334 112.369 361.334 110.653C361.334 109.176 361.607 107.955 362.152 106.989C362.697 106.023 363.442 105.25 364.385 104.67C365.328 104.091 366.391 103.653 367.572 103.358C368.766 103.051 369.999 102.83 371.271 102.693C372.805 102.534 374.05 102.392 375.004 102.267C375.959 102.131 376.652 101.926 377.084 101.653C377.527 101.369 377.749 100.932 377.749 100.341V100.239C377.749 98.9545 377.368 97.9602 376.607 97.2557C375.845 96.5511 374.749 96.1989 373.317 96.1989C371.805 96.1989 370.607 96.5284 369.72 97.1875C368.845 97.8466 368.254 98.625 367.947 99.5227L362.186 98.7045C362.641 97.1136 363.391 95.7841 364.436 94.7159C365.482 93.6364 366.76 92.8295 368.271 92.2955C369.783 91.75 371.453 91.4773 373.283 91.4773C374.544 91.4773 375.8 91.625 377.05 91.9205C378.3 92.2159 379.442 92.7045 380.476 93.3864C381.51 94.0568 382.339 94.9716 382.964 96.1307C383.601 97.2898 383.919 98.7386 383.919 100.477V118H377.987V114.403H377.783C377.408 115.131 376.879 115.812 376.197 116.449C375.527 117.074 374.68 117.58 373.658 117.966C372.646 118.341 371.459 118.528 370.095 118.528ZM371.697 113.994C372.936 113.994 374.01 113.75 374.919 113.261C375.828 112.761 376.527 112.102 377.016 111.284C377.516 110.466 377.766 109.574 377.766 108.608V105.523C377.572 105.682 377.243 105.83 376.777 105.966C376.322 106.102 375.811 106.222 375.243 106.324C374.675 106.426 374.112 106.517 373.555 106.597C372.999 106.676 372.516 106.744 372.107 106.801C371.186 106.926 370.362 107.131 369.635 107.415C368.908 107.699 368.334 108.097 367.913 108.608C367.493 109.108 367.283 109.756 367.283 110.551C367.283 111.688 367.697 112.545 368.527 113.125C369.357 113.705 370.413 113.994 371.697 113.994ZM390.396 118V83.0909H396.567V96.1477H396.822C397.141 95.5114 397.589 94.8352 398.169 94.1193C398.749 93.392 399.533 92.7727 400.521 92.2614C401.51 91.7386 402.771 91.4773 404.305 91.4773C406.328 91.4773 408.152 91.9943 409.777 93.0284C411.413 94.0511 412.709 95.5682 413.663 97.5795C414.629 99.5795 415.112 102.034 415.112 104.943C415.112 107.818 414.641 110.261 413.697 112.273C412.754 114.284 411.47 115.818 409.845 116.875C408.22 117.932 406.379 118.46 404.322 118.46C402.822 118.46 401.578 118.21 400.589 117.71C399.601 117.21 398.805 116.608 398.203 115.903C397.612 115.187 397.152 114.511 396.822 113.875H396.464V118H390.396ZM396.447 104.909C396.447 106.602 396.686 108.085 397.163 109.358C397.652 110.631 398.351 111.625 399.26 112.341C400.18 113.045 401.294 113.398 402.601 113.398C403.964 113.398 405.107 113.034 406.027 112.307C406.947 111.568 407.641 110.562 408.107 109.29C408.584 108.006 408.822 106.545 408.822 104.909C408.822 103.284 408.589 101.841 408.124 100.58C407.658 99.3182 406.964 98.3295 406.044 97.6136C405.124 96.8977 403.976 96.5398 402.601 96.5398C401.283 96.5398 400.163 96.8864 399.243 97.5795C398.322 98.2727 397.624 99.2443 397.146 100.494C396.68 101.744 396.447 103.216 396.447 104.909ZM441.051 98.7386L435.426 99.3523C435.267 98.7841 434.989 98.25 434.591 97.75C434.205 97.25 433.682 96.8466 433.023 96.5398C432.364 96.233 431.557 96.0795 430.602 96.0795C429.318 96.0795 428.239 96.358 427.364 96.9148C426.5 97.4716 426.074 98.1932 426.085 99.0795C426.074 99.8409 426.352 100.46 426.92 100.938C427.5 101.415 428.455 101.807 429.784 102.114L434.25 103.068C436.727 103.602 438.568 104.449 439.773 105.608C440.989 106.767 441.602 108.284 441.614 110.159C441.602 111.807 441.119 113.261 440.165 114.523C439.222 115.773 437.909 116.75 436.227 117.455C434.545 118.159 432.614 118.511 430.432 118.511C427.227 118.511 424.648 117.841 422.693 116.5C420.739 115.148 419.574 113.267 419.199 110.858L425.216 110.278C425.489 111.46 426.068 112.352 426.955 112.955C427.841 113.557 428.994 113.858 430.415 113.858C431.881 113.858 433.057 113.557 433.943 112.955C434.841 112.352 435.29 111.608 435.29 110.722C435.29 109.972 435 109.352 434.42 108.864C433.852 108.375 432.966 108 431.761 107.739L427.295 106.801C424.784 106.278 422.926 105.398 421.722 104.159C420.517 102.909 419.92 101.33 419.932 99.4205C419.92 97.8068 420.358 96.4091 421.244 95.2273C422.142 94.0341 423.386 93.1136 424.977 92.4659C426.58 91.8068 428.426 91.4773 430.517 91.4773C433.585 91.4773 436 92.1307 437.761 93.4375C439.534 94.7443 440.631 96.5114 441.051 98.7386Z" fill="#F2F4F7"/>
</svg>
